<svg width="795" height="995" viewBox="0 0 795 995" fill="none" xmlns="http://www.w3.org/2000/svg">
<path d="M686.98 398.029H508.136H416.727C392.96 398.029 369.433 397.02 347.176 406.852C284.881 434.374 270.264 522.022 319.386 568.746C349.001 596.915 384.426 596.745 422.688 596.745H520.059C546.007 596.745 573.847 599.584 599.545 595.894C624.849 592.26 647.98 580.905 664.467 560.976C686.658 534.151 686.98 502.498 686.98 469.567V398.029Z" fill="white"/>
<path d="M794.501 993.72C794.432 968.799 789.893 943.338 780.589 920.196C772.796 900.805 762.246 882.843 749.178 866.542C739.195 854.089 727.657 844.002 715.015 834.359C634.436 772.888 534.649 806.787 442.775 790.188C349.935 773.413 267.015 709.506 226.809 624.11C205.793 579.47 197.781 531.983 198.363 483.022C200.039 342.192 319.146 221.759 454.698 201.695C512.479 193.144 571.861 205.105 629.568 196C661.094 191.026 691.755 177.376 717.002 157.966C729.633 148.254 740.898 137.915 750.754 125.334C763.43 109.157 773.865 90.8316 781.356 71.6814C790.167 49.1649 794.434 24.2719 794.501 0.143878H569.953C514.984 0.143878 459.183 -1.84724 405.019 8.98473C333.414 23.3042 265.781 51.8854 206.304 94.3886C143.019 139.614 89.5309 201.103 54.0086 270.397C-23.3473 421.283 -17.7018 610.534 71.5611 755.262C93.7179 791.188 119.716 825.075 150.485 854.051C184.008 885.617 220.844 914.363 261.944 935.58C309.36 960.054 360.141 978.399 412.968 986.888C470.748 996.172 529.497 993.72 587.837 993.72H794.501Z" fill="white"/>
</svg>
